<?xml version="1.0" encoding="us-ascii" standalone="no"?><svg xmlns="http://www.w3.org/2000/svg" xmlns:xlink="http://www.w3.org/1999/xlink" contentStyleType="text/css" height="434px" preserveAspectRatio="none" style="width:529px;height:434px;background:#FFFFFF;" version="1.1" viewBox="0 0 529 434" width="529px" zoomAndPan="magnify"><defs/><g><!--class EditorVetorialPoligonos--><g id="elem_EditorVetorialPoligonos"><rect codeLine="1" fill="#F1F1F1" height="312.1406" id="EditorVetorialPoligonos" rx="2.5" ry="2.5" style="stroke:#181818;stroke-width:0.5;" width="515" x="7" y="115"/><ellipse cx="186.75" cy="131" fill="#ADD1B2" rx="11" ry="11" style="stroke:#181818;stroke-width:1.0;"/><path d="M189.5156,126.875 Q189.6719,126.6563 189.8594,126.5469 Q190.0469,126.4375 190.2656,126.4375 Q190.6406,126.4375 190.875,126.7031 Q191.1094,126.9531 191.1094,127.5625 L191.1094,129.0156 Q191.1094,129.625 190.875,129.8906 Q190.6406,130.1563 190.2656,130.1563 Q189.9219,130.1563 189.7188,129.9531 Q189.5156,129.7656 189.4063,129.25 Q189.3594,128.8906 189.1719,128.7031 Q188.8438,128.3281 188.2344,128.1094 Q187.625,127.8906 187,127.8906 Q186.2344,127.8906 185.5938,128.2188 Q184.9688,128.5469 184.4688,129.2969 Q183.9844,130.0469 183.9844,131.0781 L183.9844,132.1719 Q183.9844,133.4063 184.875,134.2344 Q185.7656,135.0469 187.3594,135.0469 Q188.2969,135.0469 188.9531,134.7969 Q189.3438,134.6406 189.7656,134.2031 Q190.0313,133.9375 190.1719,133.8594 Q190.3281,133.7813 190.5313,133.7813 Q190.8594,133.7813 191.1094,134.0469 Q191.375,134.2969 191.375,134.6406 Q191.375,134.9844 191.0313,135.3906 Q190.5313,135.9688 189.7344,136.2969 Q188.6563,136.75 187.3594,136.75 Q185.8438,136.75 184.6406,136.125 Q183.6563,135.625 182.9688,134.5625 Q182.2813,133.4844 182.2813,132.2031 L182.2813,131.0469 Q182.2813,129.7188 182.8906,128.5781 Q183.5156,127.4219 184.6094,126.8125 Q185.7031,126.1875 186.9375,126.1875 Q187.6719,126.1875 188.3125,126.3594 Q188.9688,126.5156 189.5156,126.875 Z " fill="#000000"/><text fill="#000000" font-family="sans-serif" font-size="14" lengthAdjust="spacing" textLength="147" x="207.25" y="136.7285">EditorVetorialPoligonos</text><line style="stroke:#181818;stroke-width:0.5;" x1="8" x2="521" y1="147" y2="147"/><line style="stroke:#181818;stroke-width:0.5;" x1="8" x2="521" y1="155" y2="155"/><ellipse cx="18" cy="169.3047" fill="#84BE84" rx="3" ry="3" style="stroke:#038048;stroke-width:1.0;"/><text fill="#000000" font-family="sans-serif" font-size="14" lengthAdjust="spacing" textLength="336" x="27" y="173.5332">EditorVetorialPoligonos(_paiRef:Objeto, _rotulo:char)</text><ellipse cx="18" cy="186.9141" fill="#84BE84" rx="3" ry="3" style="stroke:#038048;stroke-width:1.0;"/><text fill="#000000" font-family="sans-serif" font-size="14" lengthAdjust="spacing" textLength="188" x="27" y="191.1426">EstaEditandoPoligono() : bool</text><ellipse cx="18" cy="204.5234" fill="#84BE84" rx="3" ry="3" style="stroke:#038048;stroke-width:1.0;"/><text fill="#000000" font-family="sans-serif" font-size="14" lengthAdjust="spacing" textLength="307" x="27" y="208.752">AdicionarNovoPoligono(poligono:Poligono) : void</text><ellipse cx="18" cy="222.1328" fill="#84BE84" rx="3" ry="3" style="stroke:#038048;stroke-width:1.0;"/><text fill="#000000" font-family="sans-serif" font-size="14" lengthAdjust="spacing" textLength="294" x="27" y="226.3613">AdicionarPontoPoligono(ponto:Ponto4D) : void</text><ellipse cx="18" cy="239.7422" fill="#84BE84" rx="3" ry="3" style="stroke:#038048;stroke-width:1.0;"/><text fill="#000000" font-family="sans-serif" font-size="14" lengthAdjust="spacing" textLength="319" x="27" y="243.9707">AlterarPontoRastroPoligono(ponto:Ponto4D) : void</text><ellipse cx="18" cy="257.3516" fill="#84BE84" rx="3" ry="3" style="stroke:#038048;stroke-width:1.0;"/><text fill="#000000" font-family="sans-serif" font-size="14" lengthAdjust="spacing" textLength="156" x="27" y="261.5801">FinalizarPoligono() : void</text><ellipse cx="18" cy="274.9609" fill="#84BE84" rx="3" ry="3" style="stroke:#038048;stroke-width:1.0;"/><text fill="#000000" font-family="sans-serif" font-size="14" lengthAdjust="spacing" textLength="246" x="27" y="279.1895">ObterPoligonoSelecionado() : Poligono</text><ellipse cx="18" cy="292.5703" fill="#84BE84" rx="3" ry="3" style="stroke:#038048;stroke-width:1.0;"/><text fill="#000000" font-family="sans-serif" font-size="14" lengthAdjust="spacing" textLength="334" x="27" y="296.7988">SelecionarPoligono(pontoClique:Ponto4D) : Poligono</text><ellipse cx="18" cy="310.1797" fill="#84BE84" rx="3" ry="3" style="stroke:#038048;stroke-width:1.0;"/><text fill="#000000" font-family="sans-serif" font-size="14" lengthAdjust="spacing" textLength="238" x="27" y="314.4082">RemoverPoligonoSelecionado() : void</text><ellipse cx="18" cy="327.7891" fill="#84BE84" rx="3" ry="3" style="stroke:#038048;stroke-width:1.0;"/><text fill="#000000" font-family="sans-serif" font-size="14" lengthAdjust="spacing" textLength="474" x="27" y="332.0176">AlterarPontoMaisProximoPoligonoSelecionado(pontoClique:Ponto4D) : void</text><ellipse cx="18" cy="345.3984" fill="#84BE84" rx="3" ry="3" style="stroke:#038048;stroke-width:1.0;"/><text fill="#000000" font-family="sans-serif" font-size="14" lengthAdjust="spacing" textLength="489" x="27" y="349.627">RemoverPontoMaisProximoPoligonoSelecionado(pontoClique:Ponto4D) : void</text><ellipse cx="18" cy="363.0078" fill="#84BE84" rx="3" ry="3" style="stroke:#038048;stroke-width:1.0;"/><text fill="#000000" font-family="sans-serif" font-size="14" lengthAdjust="spacing" textLength="440" x="27" y="367.2363">TranslacaoPoligonoSelecionado(tx:double, ty:double, tz:double) : void</text><ellipse cx="18" cy="380.6172" fill="#84BE84" rx="3" ry="3" style="stroke:#038048;stroke-width:1.0;"/><text fill="#000000" font-family="sans-serif" font-size="14" lengthAdjust="spacing" textLength="411" x="27" y="384.8457">EscalaPoligonoSelecionado(tx:double, ty:double, tz:double) : void</text><ellipse cx="18" cy="398.2266" fill="#84BE84" rx="3" ry="3" style="stroke:#038048;stroke-width:1.0;"/><text fill="#000000" font-family="sans-serif" font-size="14" lengthAdjust="spacing" textLength="324" x="27" y="402.4551">RotacaoPoligonoSelecionado(angulo:double) : void</text><ellipse cx="18" cy="415.8359" fill="#84BE84" rx="3" ry="3" style="stroke:#038048;stroke-width:1.0;"/><text fill="#000000" font-family="sans-serif" font-size="14" lengthAdjust="spacing" textLength="183" x="27" y="420.0645">&#171;override&#187; ToString() : string</text></g><!--class Objeto--><g id="elem_Objeto"><rect fill="#F1F1F1" height="48" id="Objeto" rx="2.5" ry="2.5" style="stroke:#181818;stroke-width:0.5;" width="74" x="227.5" y="7"/><ellipse cx="242.5" cy="23" fill="#ADD1B2" rx="11" ry="11" style="stroke:#181818;stroke-width:1.0;"/><path d="M245.2656,18.875 Q245.4219,18.6563 245.6094,18.5469 Q245.7969,18.4375 246.0156,18.4375 Q246.3906,18.4375 246.625,18.7031 Q246.8594,18.9531 246.8594,19.5625 L246.8594,21.0156 Q246.8594,21.625 246.625,21.8906 Q246.3906,22.1563 246.0156,22.1563 Q245.6719,22.1563 245.4688,21.9531 Q245.2656,21.7656 245.1563,21.25 Q245.1094,20.8906 244.9219,20.7031 Q244.5938,20.3281 243.9844,20.1094 Q243.375,19.8906 242.75,19.8906 Q241.9844,19.8906 241.3438,20.2188 Q240.7188,20.5469 240.2188,21.2969 Q239.7344,22.0469 239.7344,23.0781 L239.7344,24.1719 Q239.7344,25.4063 240.625,26.2344 Q241.5156,27.0469 243.1094,27.0469 Q244.0469,27.0469 244.7031,26.7969 Q245.0938,26.6406 245.5156,26.2031 Q245.7813,25.9375 245.9219,25.8594 Q246.0781,25.7813 246.2813,25.7813 Q246.6094,25.7813 246.8594,26.0469 Q247.125,26.2969 247.125,26.6406 Q247.125,26.9844 246.7813,27.3906 Q246.2813,27.9688 245.4844,28.2969 Q244.4063,28.75 243.1094,28.75 Q241.5938,28.75 240.3906,28.125 Q239.4063,27.625 238.7188,26.5625 Q238.0313,25.4844 238.0313,24.2031 L238.0313,23.0469 Q238.0313,21.7188 238.6406,20.5781 Q239.2656,19.4219 240.3594,18.8125 Q241.4531,18.1875 242.6875,18.1875 Q243.4219,18.1875 244.0625,18.3594 Q244.7188,18.5156 245.2656,18.875 Z " fill="#000000"/><text fill="#000000" font-family="sans-serif" font-size="14" lengthAdjust="spacing" textLength="42" x="256.5" y="28.7285">Objeto</text><line style="stroke:#181818;stroke-width:0.5;" x1="228.5" x2="300.5" y1="39" y2="39"/><line style="stroke:#181818;stroke-width:0.5;" x1="228.5" x2="300.5" y1="47" y2="47"/></g><!--reverse link Objeto to EditorVetorialPoligonos--><g id="link_Objeto_EditorVetorialPoligonos"><path codeLine="18" d="M264.5,73.25 C264.5,88.4 264.5,91.62 264.5,114.88 " fill="none" id="Objeto-backto-EditorVetorialPoligonos" style="stroke:#181818;stroke-width:1.0;"/><polygon fill="none" points="264.5,55.25,258.5,73.25,270.5,73.25,264.5,55.25" style="stroke:#181818;stroke-width:1.0;"/></g><!--SRC=[hPF1JeD048RlFCKUszZUF6r84wFrfYMqyTeCx8fZfZjrTo6rwhiB55eaa9We1pBC_Dy_ixjiIk2SM2hqR9zq-KAWY0apDkp4Ho3AvsgiFjdk0MFzB5V9QrcRYQrbdnFBz0Nij6MTXue7exWb9rCXHS9CZUP6OOfim3voSH7jcq2scOeg65MVYjZuBbP-oJftVTT7o6lR034uRt-7tQC1mcC5TXRG4QoIqhSjhZNfUZ1rqhNvHdiksv-zRmdVSjsTe0V6UiV5U9kHPJu0kiZo0NSyH8wqxfYTs_w7sSQ2SGGf3FB-81Nd2UcPyE-NyDY4FQ-bIu7Wxpun-x61m6JL_po8XM6rBHQLNYp4XjVUeidgat1r67m5ftiXmi_vVEmEVGC0]--></g></svg>